<svg xmlns="http://www.w3.org/2000/svg" viewBox="0 0 320 96" fill="none">
  <rect width="320" height="96" rx="28" fill="#0f172a" />
  <rect x="20" y="20" width="56" height="56" rx="20" fill="#2563eb" />
  <path d="M42 32h12c12.15 0 22 9.85 22 22S66.15 76 54 76H42V32Zm12 32c5.52 0 10-4.48 10-10s-4.48-10-10-10h-2v20h2Z" fill="#f8fafc" />
  <path d="M108 33h20.6c17.1 0 29.4 11.6 29.4 28.6s-12.3 28.4-29.4 28.4H108V33Zm19.2 45.4c9.7 0 16.1-6.6 16.1-16.8 0-10.3-6.4-17-16.1-17h-4.1v33.8h4.1Zm42.5-45.4h15.1v57h-15.1V33Zm27.2 0h24.4c15.1 0 24.8 8 24.8 21 0 7.9-3.7 13.8-10.3 17.2l12.3 18.8h-17.1l-9.8-15.6H212v15.6h-15.1V33Zm23.5 29.4c6.6 0 10.3-3 10.3-8.2 0-5.2-3.7-8-10.3-8H212v16.2h8.4Z" fill="#f8fafc" />
</svg>
